<svg id="android" xmlns="http://www.w3.org/2000/svg" width="21.768" height="25.726" viewBox="0 0 21.768 25.726">
  <path id="Path_381" data-name="Path 381" d="M107.007,136.4H93.867a.527.527,0,0,0-.529.526v10.944a.527.527,0,0,0,.529.526H96.21v3.688a1.555,1.555,0,0,0,1.56,1.549h0a1.555,1.555,0,0,0,1.56-1.549V148.39h2.182v3.688a1.555,1.555,0,0,0,1.56,1.549h0a1.555,1.555,0,0,0,1.56-1.549V148.39h2.375a.527.527,0,0,0,.529-.526V136.921A.528.528,0,0,0,107.007,136.4Z" transform="translate(-89.553 -127.902)"/>
  <path id="Path_382" data-name="Path 382" d="M34.533,136.354h0a1.555,1.555,0,0,0-1.56,1.549V144.2a1.555,1.555,0,0,0,1.56,1.549h0a1.555,1.555,0,0,0,1.56-1.549V137.9A1.555,1.555,0,0,0,34.533,136.354Z" transform="translate(-32.973 -127.863)"/>
  <path id="Path_383" data-name="Path 383" d="M331.958,136.354h0a1.555,1.555,0,0,0-1.56,1.549V144.2a1.555,1.555,0,0,0,1.56,1.549h0a1.555,1.555,0,0,0,1.56-1.549V137.9A1.555,1.555,0,0,0,331.958,136.354Z" transform="translate(-311.75 -127.863)"/>
  <path id="Path_384" data-name="Path 384" d="M95.555,7.726h12.9a.527.527,0,0,0,.518-.635,7.084,7.084,0,0,0-3.478-4.7l1.1-1.976a.276.276,0,0,0-.109-.376.28.28,0,0,0-.379.108L105,2.133a7.18,7.18,0,0,0-5.986,0L97.9.142a.28.28,0,0,0-.379-.108.276.276,0,0,0-.109.376l1.1,1.976a7.084,7.084,0,0,0-3.478,4.7A.527.527,0,0,0,95.555,7.726Zm10.3-2.944a.6.6,0,1,1-.6-.6A.6.6,0,0,1,105.851,4.781Zm-7.1-.6a.6.6,0,1,1-.6.6A.6.6,0,0,1,98.755,4.186Z" transform="translate(-91.135 0)"/>
</svg>
