<svg xmlns="http://www.w3.org/2000/svg" width="24.093" height="19.141" viewBox="0 0 24.093 19.141">
  <path id="Union_1" data-name="Union 1" d="M8370.242,8180.254h-4.567a2.727,2.727,0,0,1-1.9-.747,2.5,2.5,0,0,1-.779-1.814v-11.131a2.5,2.5,0,0,1,.779-1.814,2.729,2.729,0,0,1,1.9-.749h18.742a2.721,2.721,0,0,1,1.894.749,2.491,2.491,0,0,1,.782,1.814v11.131a2.49,2.49,0,0,1-.782,1.814,2.719,2.719,0,0,1-1.894.747h-7.6l-6.572,2.885Zm-5.912-14.981a1.776,1.776,0,0,0-.552,1.289v11.131a1.772,1.772,0,0,0,.552,1.287,1.935,1.935,0,0,0,1.345.53h5.344v2.468l5.626-2.468h7.772a1.933,1.933,0,0,0,1.345-.53,1.773,1.773,0,0,0,.553-1.287v-11.131a1.769,1.769,0,0,0-.553-1.287,1.933,1.933,0,0,0-1.345-.53h-18.742A1.942,1.942,0,0,0,8364.33,8165.273Zm3.338,8.939v-.745h7.783v.745Zm0-2.98v-.746h15.565v.746Z" transform="translate(-8363 -8163.999)"/>
</svg>
