<svg xmlns="http://www.w3.org/2000/svg" width="28.666" height="26.244" viewBox="0 0 28.666 26.244">
  <g id="Group_39300" data-name="Group 39300" transform="translate(7926.25 5580.15)">
    <g id="Group" transform="translate(-7926.1 -5580)">
      <path id="Path" d="M23.154,37.454l-8.939-8.629-.449.483,9.388,9.077L34.82,27.168a8.767,8.767,0,0,0,0-12.149,7.213,7.213,0,0,0-5.246-2.209H29.5a9.353,9.353,0,0,0-6.351,2.623C21.083,13.5,19.185,12.5,17.459,12.5a8.25,8.25,0,0,0-5.938,2.521,8.594,8.594,0,0,0-2.311,4.416l.69.138A7.9,7.9,0,0,1,12.006,15.5a7.559,7.559,0,0,1,5.453-2.312c1.588,0,3.417.966,5.419,2.934a.414.414,0,0,0,.587,0,8.7,8.7,0,0,1,6.04-2.589h.069a6.558,6.558,0,0,1,4.728,2,7.938,7.938,0,0,1,2.243,5.591,8.111,8.111,0,0,1-.621,3.072H27.71a.345.345,0,0,0-.242.1l-3.831,4.038L19.6,19.2a.345.345,0,0,0-.621-.035l-3.072,5H8.9v.69h7.213a.345.345,0,0,0,.311-.173l2.83-4.625L23.189,29.1a.345.345,0,0,0,.242.207H23.5a.345.345,0,0,0,.242-.1l4.142-4.349h7.766a7.8,7.8,0,0,1-1.312,1.795Z" transform="translate(-8.9 -12.5)" stroke="#000" stroke-width="0.3"/>
    </g>
  </g>
</svg>
