<svg xmlns="http://www.w3.org/2000/svg" width="20.914" height="29.239" viewBox="0 0 20.914 29.239">
  <g id="Group_39301" data-name="Group 39301" transform="translate(8009.05 5655.25)">
    <path id="Rectangle_29338" data-name="Rectangle 29338" d="M4.525.814a3.714,3.714,0,0,0-3.71,3.71v7.24a1,1,0,0,0,1,1H19a1,1,0,0,0,1-1V4.525a3.714,3.714,0,0,0-3.71-3.71H4.525m0-.814H16.289a4.525,4.525,0,0,1,4.525,4.525v7.24A1.81,1.81,0,0,1,19,13.574H1.81A1.81,1.81,0,0,1,0,11.764V4.525A4.525,4.525,0,0,1,4.525,0Z" transform="translate(-8009 -5639.635)" stroke="#000" stroke-width="0.1"/>
    <path id="Path_340180" data-name="Path 340180" d="M46.152,56.285V54.793a.193.193,0,0,0-.193-.193h-.482a.193.193,0,0,0-.193.193v1.493H43.793a.193.193,0,0,0-.193.193v.482a.193.193,0,0,0,.193.193h1.493v1.493a.193.193,0,0,0,.193.193h.482a.193.193,0,0,0,.193-.193V57.152h1.493a.193.193,0,0,0,.193-.193v-.482a.193.193,0,0,0-.193-.193Z" transform="translate(-8039.073 -5689.875)" stroke="#000" stroke-width="0.1"/>
    <path id="Path_340178" data-name="Path 340178" d="M33.053,25.505A6.453,6.453,0,1,0,26.6,19.052,6.46,6.46,0,0,0,33.053,25.505Zm0-12.52a6.067,6.067,0,1,1-6.068,6.067A6.074,6.074,0,0,1,33.053,12.985Z" transform="translate(-8031.528 -5667.619)" stroke="#000" stroke-width="0.1"/>
    <path id="Path_340178_-_Outline" data-name="Path 340178 - Outline" d="M33.034,25.667a6.634,6.634,0,1,1,6.634-6.634A6.641,6.641,0,0,1,33.034,25.667Zm0-12.906a6.272,6.272,0,1,0,6.272,6.272A6.279,6.279,0,0,0,33.034,12.762Zm0,12.52a6.248,6.248,0,1,1,6.248-6.248A6.255,6.255,0,0,1,33.034,25.282Zm0-12.135a5.886,5.886,0,1,0,5.887,5.886A5.893,5.893,0,0,0,33.034,13.147Z" transform="translate(-8031.509 -5667.6)" stroke="#000" stroke-width="0.1"/>
  </g>
</svg>
