<svg xmlns="http://www.w3.org/2000/svg" width="24.866" height="24.967" viewBox="0 0 24.866 24.967">
  <g id="Group_39299" data-name="Group 39299" transform="translate(-2.134 -2)">
    <g id="Group_39287" data-name="Group 39287" transform="translate(6.047 8.647)">
      <path id="Path_340170" data-name="Path 340170" d="M29.14,34.416H12.857a.378.378,0,0,1-.375-.426l1.366-10.88h0a4.05,4.05,0,0,1,4.011-3.539h6.28a4.05,4.05,0,0,1,4.011,3.539l1.366,10.88a.378.378,0,0,1-.375.426Zm-15.854-.757H28.711L27.4,23.2a3.292,3.292,0,0,0-3.261-2.877h-6.28A3.292,3.292,0,0,0,14.6,23.2Z" transform="translate(-12.479 -19.571)"/>
    </g>
    <g id="Group_39288" data-name="Group 39288" transform="translate(9.301 12.435)">
      <path id="Path_340171" data-name="Path 340171" d="M21.459,34.5l-.048,0a.378.378,0,0,1-.328-.423l.39-3.109a2.485,2.485,0,0,1,.519-1.236.378.378,0,0,1,.593.471,1.73,1.73,0,0,0-.361.86l-.39,3.109A.378.378,0,0,1,21.459,34.5Z" transform="translate(-21.08 -29.583)"/>
    </g>
    <g id="Group_39289" data-name="Group 39289" transform="translate(4.401 22.735)">
      <path id="Path_340172" data-name="Path 340172" d="M27.017,61.044H9.567a1.42,1.42,0,0,1-1.441-1.395V58.206a1.42,1.42,0,0,1,1.441-1.395h17.45a1.42,1.42,0,0,1,1.441,1.395v1.443A1.42,1.42,0,0,1,27.017,61.044ZM9.567,57.568a.663.663,0,0,0-.684.638v1.443a.663.663,0,0,0,.684.638h17.45a.663.663,0,0,0,.685-.638V58.206a.663.663,0,0,0-.685-.638Z" transform="translate(-8.126 -56.812)"/>
    </g>
    <g id="Group_39291" data-name="Group 39291" transform="translate(14.189 2)">
      <g id="Group_39290" data-name="Group 39290" transform="translate(0 0)">
        <path id="Path_340173" data-name="Path 340173" d="M34.378,5.2A.378.378,0,0,1,34,4.818V2.378a.378.378,0,1,1,.757,0V4.818A.378.378,0,0,1,34.378,5.2Z" transform="translate(-34 -2)"/>
      </g>
    </g>
    <g id="Group_39293" data-name="Group 39293" transform="translate(20.988 5.531)">
      <g id="Group_39292" data-name="Group 39292" transform="translate(0 0)">
        <path id="Path_340174" data-name="Path 340174" d="M52.351,13.814a.378.378,0,0,1-.267-.646l1.725-1.725a.378.378,0,0,1,.535.535L52.618,13.7A.377.377,0,0,1,52.351,13.814Z" transform="translate(-51.973 -11.333)"/>
      </g>
    </g>
    <g id="Group_39296" data-name="Group 39296" transform="translate(2.134 14.054)">
      <g id="Group_39294" data-name="Group 39294" transform="translate(21.67)">
        <path id="Path_340175" data-name="Path 340175" d="M62.235,34.622H59.8a.378.378,0,1,1,0-.757h2.439a.378.378,0,1,1,0,.757Z" transform="translate(-59.417 -33.865)"/>
      </g>
      <g id="Group_39295" data-name="Group 39295">
        <path id="Path_340176" data-name="Path 340176" d="M4.952,34.622H2.513a.378.378,0,1,1,0-.757H4.952a.378.378,0,1,1,0,.757Z" transform="translate(-2.134 -33.865)"/>
      </g>
    </g>
    <g id="Group_39298" data-name="Group 39298" transform="translate(5.665 5.531)">
      <g id="Group_39297" data-name="Group 39297" transform="translate(0 0)">
        <path id="Path_340177" data-name="Path 340177" d="M13.571,13.814A.377.377,0,0,1,13.3,13.7l-1.725-1.725a.378.378,0,0,1,.535-.535l1.725,1.725a.378.378,0,0,1-.267.646Z" transform="translate(-11.468 -11.333)"/>
      </g>
    </g>
  </g>
</svg>
