<svg xmlns="http://www.w3.org/2000/svg" width="22.667" height="34" viewBox="0 0 22.667 34">
  <g id="Group_39326" data-name="Group 39326" transform="translate(-10 -2)">
    <g id="Group_39243" data-name="Group 39243" transform="translate(10 2)">
      <path id="Path_340136" data-name="Path 340136" d="M15.49,36a5.622,5.622,0,0,1-5.411-5.245.708.708,0,1,1,1.409-.147,4.213,4.213,0,0,0,4,3.975,4.287,4.287,0,0,0,4.029-4.5c0-.721.432-3.34,5.989-6.783,3.649-2.261,5.741-5.707,5.741-9.458A10.208,10.208,0,0,0,21.3,3.417a10.106,10.106,0,0,0-9.89,9.313A.708.708,0,1,1,10,12.587,11.519,11.519,0,0,1,21.3,2,11.625,11.625,0,0,1,32.667,13.845c0,4.252-2.337,8.138-6.412,10.662-5.258,3.257-5.319,5.485-5.319,5.579A5.7,5.7,0,0,1,15.49,36Z" transform="translate(-10 -2)"/>
    </g>
    <g id="Group_39244" data-name="Group 39244" transform="translate(16.436 7.762)">
      <path id="Path_340137" data-name="Path 340137" d="M19.794,26.033a.708.708,0,1,1,0-1.417c1.379,0,2.5-1.443,2.5-3.217a3.4,3.4,0,0,0-1.454-2.918,3.463,3.463,0,0,1-1.756-2.954V15.31a5.136,5.136,0,1,1,10.271,0,.708.708,0,1,1-1.417,0,3.719,3.719,0,1,0-7.437,0v.217a2.062,2.062,0,0,0,1.068,1.74A4.764,4.764,0,0,1,23.712,21.4C23.712,23.954,21.954,26.033,19.794,26.033Z" transform="translate(-19.086 -10.135)"/>
    </g>
  </g>
</svg>
