<svg xmlns="http://www.w3.org/2000/svg" width="23.039" height="25.869" viewBox="0 0 23.039 25.869">
  <g id="Group_39325" data-name="Group 39325" transform="translate(-717.003 -743.499)">
    <path id="Path_340182" data-name="Path 340182" d="M10.88,46.074a5.061,5.061,0,0,0,3.694,2.136,6.762,6.762,0,0,0,2.373-.7,6.546,6.546,0,0,1,2.255-.4,5.568,5.568,0,0,1,2.164.424c.364.154.724.317,1.093.459a3.284,3.284,0,0,0,1.176.22,3.692,3.692,0,0,0,2.078-.669,13.734,13.734,0,0,0,4.012-5.208c.093-.186.182-.374.271-.56.148-.311-.085-.705-.5-.932a5.593,5.593,0,0,1-3.062-4.673,5.366,5.366,0,0,1,2.314-5.032l.327-.269c.182-.15.083-.564-.259-.887A6.894,6.894,0,0,0,24.112,28a6.239,6.239,0,0,0-1.023.085c-1.536.263-2.769.994-4.216.994a4.212,4.212,0,0,1-1.293-.2A12.308,12.308,0,0,0,13.873,28a3.393,3.393,0,0,0-.428.018,7.025,7.025,0,0,0-4.208,2C7,32.224,6.685,35.645,7.243,38.537A17.158,17.158,0,0,0,10.88,46.074Z" transform="translate(710 721.158)" fill="#f8f7f5"/>
    <path id="Path_340183" data-name="Path 340183" d="M63.4,5.656a.491.491,0,0,0,.087,0,5.313,5.313,0,0,0,4.763-5.3A.354.354,0,0,0,67.881,0a.475.475,0,0,0-.107.012c-4.313,1-4.761,4.109-4.774,5.271a.384.384,0,0,0,.4.376ZM66.271,2.4c-.172,1.225,2.668-1.1,0-.415C66.433.834,63.563,3.223,66.271,2.4Z" transform="translate(665.32 743.501)" fill="#f8f7f5"/>
  </g>
</svg>
