<svg xmlns="http://www.w3.org/2000/svg" width="19.301" height="31.132" viewBox="0 0 19.301 31.132">
  <g id="noun-allergy-symptom-6525622" transform="translate(-1267.45 -701.689)">
    <g id="Group_39286" data-name="Group 39286" transform="translate(1267.6 701.849)">
      <g id="Group_39285" data-name="Group 39285" transform="translate(0 0)">
        <g id="Group_39283" data-name="Group 39283" transform="translate(4.54)">
          <g id="Group_39282" data-name="Group 39282">
            <path id="Path_340159" data-name="Path 340159" d="M1804.663,730.416a6.316,6.316,0,0,1-.795-.051,4.749,4.749,0,0,1-1.219-.3,2,2,0,0,1-.874-.632c-.252-.346-.189-1-.073-1.882a5.771,5.771,0,0,0,.069-.7c-.236-.189-.973-.84-.912-1.563.029-.354.308-.662.828-.914a4.1,4.1,0,0,1,.662-.249,3.056,3.056,0,0,0,.8-.526c.1-.1.144-.187.135-.248-.014-.093-.182-.258-.609-.415a4.569,4.569,0,0,0-.686-.186l-.024-.005c-.018-.005-.441-.121-.915-.309a2.692,2.692,0,0,1-1.281-.823,2.269,2.269,0,0,1-.094-1.576,3.171,3.171,0,0,0,.057-.4,1.2,1.2,0,0,0-.194-.106c-.133-.062-.3-.129-.484-.2-.713-.282-1.521-.6-1.709-1.166a1.569,1.569,0,0,1,.177-.957c.146-.387.363-.872.614-1.435.971-2.182,2.439-5.48,1.761-7.372a4.957,4.957,0,0,1,0-3.284c.129-.357.333-1.16.6-2.385.05-.223.111-.453.18-.682a.267.267,0,1,1,.512.155c-.066.217-.123.434-.17.643a25.251,25.251,0,0,1-.624,2.45,4.411,4.411,0,0,0,0,2.922,6.366,6.366,0,0,1-.24,3.863,33.258,33.258,0,0,1-1.537,3.907c-.238.534-.443,1-.584,1.36a1.9,1.9,0,0,0-.186.651c.033.091.141.236.471.422a7.772,7.772,0,0,0,.925.411c.6.238.967.382,1.01.685a2.135,2.135,0,0,1-.058.618,1.928,1.928,0,0,0,.019,1.194c.053.083.259.309,1.023.612.407.161.784.269.852.288a5.116,5.116,0,0,1,.757.206c.587.214.911.5.962.842a.826.826,0,0,1-.279.7,3.541,3.541,0,0,1-.967.645.25.25,0,0,1-.053.02,3.617,3.617,0,0,0-.6.222c-.32.156-.51.329-.522.474-.038.442.536.971.759,1.137a.586.586,0,0,1,.15.535c-.01.171-.039.389-.069.62-.04.306-.086.653-.1.947-.013.4.051.524.07.55a2.6,2.6,0,0,0,1.728.719,6.071,6.071,0,0,0,4.318-1.14l.273-.2,2.287-1.645a.267.267,0,1,1,.312.434l-2.287,1.646-.273.2a6.869,6.869,0,0,1-2.231,1.064A6.465,6.465,0,0,1,1804.663,730.416Zm-4.935-10.832Zm0,0Zm0,0Zm-1.876-1.589Zm0-.009Z" transform="translate(-1797.317 -701.849)" stroke="#000" stroke-width="0.3"/>
            <path id="Path_340160" data-name="Path 340160" d="M2322.518,1283.065a.265.265,0,0,1-.153-.048,9.381,9.381,0,0,0-1.639-.843,11.149,11.149,0,0,0-4.159-.839.267.267,0,1,1,0-.535,11.217,11.217,0,0,1,2.452.277,12,12,0,0,1,1.926.609,9.773,9.773,0,0,1,1.726.893.268.268,0,0,1-.153.487Z" transform="translate(-2311.852 -1275.838)" stroke="#000" stroke-width="0.3"/>
            <path id="Path_340161" data-name="Path 340161" d="M2407.206,1690.5a.266.266,0,0,1-.163-.056h0a7.647,7.647,0,0,0-.946-.592,7.144,7.144,0,0,0-2.228-.78.267.267,0,1,1,.079-.529,7.68,7.68,0,0,1,2.412.843,7.914,7.914,0,0,1,1.01.634.267.267,0,0,1-.163.479Z" transform="translate(-2398.445 -1680.084)" stroke="#000" stroke-width="0.3"/>
            <path id="Path_340162" data-name="Path 340162" d="M2505.868,1713.858a.268.268,0,0,1-.268-.267v-1.223a.267.267,0,0,1,.535,0v1.223A.267.267,0,0,1,2505.868,1713.858Z" transform="translate(-2499.53 -1703.442)" stroke="#000" stroke-width="0.3"/>
          </g>
          <path id="Path_340163" data-name="Path 340163" d="M3095.347,3809.676a.267.267,0,0,1-.248-.167,7.047,7.047,0,0,0-2.718-3.56.267.267,0,0,1,.277-.457,7.565,7.565,0,0,1,2.936,3.816.267.267,0,0,1-.147.348A.258.258,0,0,1,3095.347,3809.676Z" transform="translate(-3081.154 -3778.854)" stroke="#000" stroke-width="0.3"/>
        </g>
        <path id="Path_340164" data-name="Path 340164" d="M1422.089,2955.038a.267.267,0,0,1-.2-.257h0a.3.3,0,0,1,.009-.072h0a.266.266,0,0,1,.328-.187h0a.267.267,0,0,1,.2.257h0a.3.3,0,0,1-.009.072h0a.267.267,0,0,1-.258.2h0A.248.248,0,0,1,1422.089,2955.038Zm-1.547-.424a.267.267,0,0,1-.2-.257h0a.3.3,0,0,1,.009-.072h0a.267.267,0,0,1,.328-.187h0a.267.267,0,0,1,.2.257h0a.3.3,0,0,1-.009.072h0a.268.268,0,0,1-.258.2h0A.29.29,0,0,1,1420.542,2954.615Zm-1.546-.424a.267.267,0,0,1-.2-.257h0a.3.3,0,0,1,.009-.072h0a.267.267,0,0,1,.328-.187h0a.267.267,0,0,1,.2.257h0a.291.291,0,0,1-.009.072h0a.268.268,0,0,1-.258.2h0A.252.252,0,0,1,1419,2954.19Z" transform="translate(-1417.504 -2934.366)" stroke="#000" stroke-width="0.3"/>
        <g id="Group_39284" data-name="Group 39284" transform="translate(1.064 23.369)">
          <path id="Path_340165" data-name="Path 340165" d="M1914.966,3429.532h-.026l-.013,0-.013,0-.013,0-.013,0-.013,0-.012,0-.012-.005-.012-.006-.011-.007-.011-.007-.01-.008-.01-.008-.01-.009-.01-.009-.009-.01-.009-.01-.008-.01-.008-.01-.007-.011a.059.059,0,0,0-.007-.011l-.006-.012-.005-.012a.061.061,0,0,1,0-.012s0-.009,0-.012,0-.009,0-.013l0-.013,0-.013s0-.009,0-.013,0-.009,0-.013v-.026s0-.009,0-.013a.059.059,0,0,1,0-.013l0-.013,0-.013s0-.009,0-.013a.058.058,0,0,1,0-.012.08.08,0,0,0,0-.012l.005-.012.006-.012.007-.011.007-.011.008-.011.008-.01.009-.01.009-.009.01-.01.01-.009.01-.008.011-.008.011-.007.011-.006.012-.006.012-.005.012,0,.012,0,.013,0,.013,0,.013,0,.013,0h.052l.013,0,.013,0,.013,0,.013,0,.012,0,.012,0,.012.005.012.006.011.006.011.007.011.008.01.008.01.009.009.01.009.009.009.01.008.01.008.011.007.011.007.011.006.012.005.012.005.012s0,.009,0,.012l0,.013,0,.013,0,.013s0,.009,0,.013a.063.063,0,0,1,0,.013v.026s0,.009,0,.013a.057.057,0,0,1,0,.013l0,.013,0,.013s0,.009,0,.013a.046.046,0,0,1,0,.012l-.005.012-.005.012-.006.012a.052.052,0,0,1-.007.011s0,.008-.007.011l-.008.01-.008.01-.009.01-.009.01-.009.009-.01.009-.01.008-.011.008-.011.007-.011.007-.012.006-.012.005-.012,0-.012,0-.013,0-.013,0-.013,0-.013,0h-.027Z" transform="translate(-1910.219 -3428.997)" stroke="#000" stroke-width="0.3"/>
          <path id="Path_340166" data-name="Path 340166" d="M1914.611,3428.937a.267.267,0,0,1,.192-.326h0a.267.267,0,0,1,.326.192h0a.267.267,0,0,1-.192.326h0a.252.252,0,0,1-.067.008h0A.269.269,0,0,1,1914.611,3428.937Z" transform="translate(-1910.122 -3428.603)" stroke="#000" stroke-width="0.3"/>
          <path id="Path_340167" data-name="Path 340167" d="M1566.608,3474.222a.262.262,0,0,1-.009-.067h0a.267.267,0,0,1,.2-.259h0a.267.267,0,0,1,.326.192h0a.252.252,0,0,1,.009.067h0a.267.267,0,0,1-.2.259h0a.264.264,0,0,1-.067.009h0A.267.267,0,0,1,1566.608,3474.222Zm1.491-.385a.262.262,0,0,1-.008-.067h0a.267.267,0,0,1,.2-.259h0a.267.267,0,0,1,.326.192h0a.262.262,0,0,1,.009.067h0a.267.267,0,0,1-.2.259h0a.26.26,0,0,1-.067.009h0A.268.268,0,0,1,1568.1,3473.837Z" transform="translate(-1565.102 -3473.118)" stroke="#000" stroke-width="0.3"/>
          <path id="Path_340168" data-name="Path 340168" d="M1392.073,3563.835h-.006a.268.268,0,0,1,0-.535h.006a.268.268,0,0,1,0,.535Z" transform="translate(-1391.8 -3562.145)" stroke="#000" stroke-width="0.3"/>
        </g>
        <path id="Path_340169" data-name="Path 340169" d="M1272.125,3236.3a.267.267,0,0,1-.255-.266h0v-.014h0a.267.267,0,0,1,.279-.255h0a.267.267,0,0,1,.255.266h0v.014h0a.267.267,0,0,1-.267.254h-.013Zm-1.068-.051a.267.267,0,0,1-.255-.266h0v-.014h0a.267.267,0,0,1,.279-.255h0a.267.267,0,0,1,.255.266h0V3236h0a.267.267,0,0,1-.267.255h-.013Zm-1.068-.052a.267.267,0,0,1-.254-.266h0v-.014h0a.267.267,0,0,1,.279-.255h0a.266.266,0,0,1,.255.266h0v.014h0a.267.267,0,0,1-.267.255h-.013Zm-1.068-.051a.267.267,0,0,1-.254-.266h0v-.014h0a.267.267,0,0,1,.279-.255h0a.267.267,0,0,1,.255.266h0v.014h0a.267.267,0,0,1-.267.254h-.013Zm-1.067-.051a.267.267,0,0,1-.255-.266h0v-.014h0a.267.267,0,0,1,.279-.255h0a.267.267,0,0,1,.255.266h0v.014h0a.267.267,0,0,1-.266.254h-.013Z" transform="translate(-1267.6 -3213.851)" stroke="#000" stroke-width="0.3"/>
      </g>
    </g>
  </g>
</svg>
